<?xml version="1.0" encoding="iso-8859-1"?>
<!-- Uploaded to: SVG Repo, www.svgrepo.com, Generator: SVG Repo Mixer Tools -->
<svg height="800px" width="800px" version="1.1" id="Layer_1" xmlns="http://www.w3.org/2000/svg" xmlns:xlink="http://www.w3.org/1999/xlink" 
	 viewBox="0 0 511.995 511.995" xml:space="preserve">
<circle style="fill:#E84F4F;" cx="255.997" cy="255.997" r="255.997"/>
<path style="fill:#C94545;" d="M511.025,278.246C500.361,402.261,401.287,500.992,277.099,511.14L145,379.04
	C15.079,257.318,159.792-18.978,383.341,150.562L511.025,278.246z"/>
<path style="fill:#F7F7F8;" d="M255.77,90.475c90.647,0,164.264,72.873,165.526,163.174l18.633-14.62
	c2.58-2.006,6.307-1.548,8.313,0.975l0,0c2.006,2.58,1.548,6.307-0.975,8.313l-27.979,21.96c-1.147,0.918-2.523,1.319-3.898,1.262
	c-1.376,0.057-2.752-0.344-3.898-1.262l-27.979-21.96c-2.58-2.006-3.039-5.791-0.975-8.313l0,0c2.006-2.58,5.734-3.039,8.313-0.975
	l16.741,13.13c-2.006-82.046-69.204-147.981-151.765-147.981c-77.172,0-140.872,57.621-150.504,132.156
	c-2.58-1.548-5.504-2.35-8.543-2.293c-1.72,0-3.497,0.229-5.16,0.745c10.377-81.415,79.925-144.369,164.207-144.369L255.77,90.475z
	 M64.846,263.396l27.979-21.96c1.147-0.918,2.523-1.319,3.898-1.262c1.376-0.057,2.752,0.344,3.898,1.262l27.979,21.96
	c2.58,2.006,3.039,5.791,0.975,8.313l0,0c-2.006,2.58-5.734,3.039-8.313,0.975l-17.258-13.531
	c1.663,82.39,68.973,148.669,151.765,148.669c77.288,0,141.044-57.736,150.562-132.443c2.638,1.72,5.791,2.638,9.002,2.58
	c1.548,0,3.096-0.172,4.587-0.63c-10.492,81.358-79.982,144.197-164.15,144.197c-90.589,0-164.207-72.758-165.526-163.06
	l-18.118,14.219c-2.58,2.006-6.307,1.548-8.313-0.975l0,0c-2.006-2.58-1.548-6.307,0.975-8.313h0.058V263.396z"/>
<path style="fill:#00CC96;" d="M255.999,163.06c51.315,0,92.94,41.625,92.94,92.94s-41.625,92.94-92.94,92.94
	s-92.94-41.625-92.94-92.94S204.685,163.06,255.999,163.06z"/>
<path style="fill:#F7F7F8;" d="M287.477,208.813c-5.389-2.293-13.76-4.53-24.654-4.587v-10.665h-13.588v11.925
	c-17.487,3.555-27.578,14.506-27.578,27.979c0,12.786,10.549,22.132,27.578,28.668v29.413c-9.289-0.115-18.692-2.58-24.654-5.618
	l-4.415,16.226c5.504,2.867,17.315,5.618,28.954,5.618h0.172v10.665h13.588v-11.925c18.749-3.612,29.126-14.792,29.126-29.183
	c0-13.244-8.428-22.533-27.292-29.756c-0.63-0.229-1.262-0.516-1.835-0.745V220.34c9.117,0.172,15.939,2.523,19.952,4.3
	l4.759-15.882L287.477,208.813z M255.999,163.06c51.315,0,92.94,41.625,92.94,92.94s-41.625,92.94-92.94,92.94
	s-92.94-41.625-92.94-92.94S204.685,163.06,255.999,163.06z M255.999,179.688c42.141,0,76.313,34.172,76.313,76.313
	S298.14,332.313,256,332.313S179.687,298.141,179.687,256S213.859,179.688,255.999,179.688z M262.823,268.499
	c4.3,2.982,6.307,6.192,6.307,10.492c0,4.243-2.121,7.74-6.307,9.976v-20.412V268.499z M249.234,240.233
	c-3.268-2.408-4.759-5.045-4.759-8.715c0-2.982,1.548-5.963,4.759-8.084V240.233z"/>
</svg>